# xmcd CD database file
#
# Track frame offsets:
#	150
#	10106
#	20042
#	29046
#	45546
#	53727
#	63389
#	76262
#	83943
#	95354
#	102442
#	109030
#	120123
#	131508
#	138129
#	148621
#	165164
#	179875
#	187805
#	202175
#	227031
#
# Disc length: 3159 seconds
#
# Revision: 0
# Processed by: cddbd v1.5.2PL0 Copyright (c) Steve Scherf et al.
# Submitted via: CDex 1.51
#
DISCID=150c5515
DTITLE=E. J. Gold - Inside Outside
DYEAR=2006
DGENRE=Jazz
TTITLE0=Preface to a Waking Dream
TTITLE1=Interdimensional Conversation
TTITLE2=Early Bird Special
TTITLE3=Weapon of Mass Creation
TTITLE4=Touch the Sky
TTITLE5=Toast of the Idiots
TTITLE6=Conspiracy
TTITLE7=Across the Sea
TTITLE8=Fog Upon Wharftown
TTITLE9=Travelling Monk
TTITLE10=Oasis
TTITLE11=Silence In Between
TTITLE12=Cautiously Advancing
TTITLE13=Scenic Vista Point
TTITLE14=Flintstone
TTITLE15=Tabula Rasa
TTITLE16=Exceed in Delicacy
TTITLE17=Wheels Within Wheels
TTITLE18=Waiting
TTITLE19=Breath of the Temple
TTITLE20=Help From Above
EXTD=YEAR: 2006
EXTT0=
EXTT1=
EXTT2=
EXTT3=
EXTT4=
EXTT5=
EXTT6=
EXTT7=
EXTT8=
EXTT9=
EXTT10=
EXTT11=
EXTT12=
EXTT13=
EXTT14=
EXTT15=
EXTT16=
EXTT17=
EXTT18=
EXTT19=
EXTT20=
PLAYORDER=
